<svg width="71" height="70" viewBox="0 0 71 70" fill="none" xmlns="http://www.w3.org/2000/svg">
<g filter="url(#filter0_d_75_626)">
<circle cx="35.3996" cy="21.7999" r="16.7999" fill="#6A4029"/>
</g>
<path d="M35.3996 5C26.1211 5 18.5996 12.5215 18.5996 21.8C18.5996 31.0785 26.1211 38.6 35.3996 38.6C44.6781 38.6 52.1996 31.0785 52.1996 21.8C52.1996 12.5215 44.6781 5 35.3996 5ZM42.2334 18.762C42.2404 18.9055 42.2421 19.049 42.2421 19.189C42.2421 23.564 38.9154 28.6058 32.8289 28.6058C31.0304 28.6087 29.2693 28.0922 27.7574 27.1183C28.0146 27.1498 28.2789 27.162 28.5466 27.162C30.0971 27.162 31.5234 26.6353 32.6556 25.7463C31.9656 25.7327 31.297 25.5042 30.7431 25.0927C30.1891 24.6811 29.7773 24.107 29.5651 23.4503C30.0606 23.5445 30.5711 23.5247 31.0579 23.3925C30.3089 23.2411 29.6355 22.8353 29.1516 22.2439C28.6677 21.6526 28.4033 20.9121 28.4031 20.148V20.1078C28.8494 20.3545 29.3604 20.505 29.9029 20.5225C29.2008 20.0551 28.7037 19.3372 28.5134 18.5155C28.3231 17.6938 28.454 16.8304 28.8791 16.102C29.7103 17.124 30.7468 17.9601 31.9216 18.556C33.0964 19.152 34.3833 19.4947 35.6989 19.5618C35.5316 18.8518 35.6036 18.1065 35.9036 17.4416C36.2037 16.7768 36.7149 16.2297 37.358 15.8855C38.001 15.5412 38.7398 15.419 39.4594 15.5379C40.1791 15.6568 40.8393 16.0102 41.3374 16.543C42.0779 16.3965 42.7881 16.1248 43.4374 15.7398C43.1905 16.5065 42.6738 17.1576 41.9831 17.572C42.6391 17.493 43.2796 17.3166 43.8836 17.0488C43.44 17.7136 42.8811 18.2938 42.2334 18.762Z" fill="#FFBA33"/>
<defs>
<filter id="filter0_d_75_626" x="0.599609" y="0" width="69.5996" height="69.5999" filterUnits="userSpaceOnUse" color-interpolation-filters="sRGB">
<feFlood flood-opacity="0" result="BackgroundImageFix"/>
<feColorMatrix in="SourceAlpha" type="matrix" values="0 0 0 0 0 0 0 0 0 0 0 0 0 0 0 0 0 0 127 0" result="hardAlpha"/>
<feOffset dy="13"/>
<feGaussianBlur stdDeviation="9"/>
<feColorMatrix type="matrix" values="0 0 0 0 0.0658854 0 0 0 0 0.0730469 0 0 0 0 0.1375 0 0 0 0.08 0"/>
<feBlend mode="normal" in2="BackgroundImageFix" result="effect1_dropShadow_75_626"/>
<feBlend mode="normal" in="SourceGraphic" in2="effect1_dropShadow_75_626" result="shape"/>
</filter>
</defs>
</svg>
